<?xml version="1.0" encoding="UTF-8"?>
<svg version="1.1" xmlns="http://www.w3.org/2000/svg" width="246" height="250">
<path d="M0 0 C81.18 0 162.36 0 246 0 C246 82.5 246 165 246 250 C164.82 250 83.64 250 0 250 C0 167.5 0 85 0 0 Z " fill="#5B4CE1" transform="translate(0,0)"/>
<path d="M0 0 C81.18 0 162.36 0 246 0 C246 82.5 246 165 246 250 C164.82 250 83.64 250 0 250 C0 167.5 0 85 0 0 Z M19 26 C18.44699219 26.51820312 17.89398438 27.03640625 17.32421875 27.5703125 C13.5367866 31.47004048 11.19600322 36.13508873 8.75 40.9375 C8.4082373 41.60595947 8.06647461 42.27441895 7.71435547 42.96313477 C7.39096191 43.62369873 7.06756836 44.2842627 6.734375 44.96484375 C6.44788086 45.5487085 6.16138672 46.13257324 5.86621094 46.73413086 C2.87129485 54.5683519 2.70845996 61.84538282 2.7253418 70.15454102 C2.72023087 71.45810043 2.71511993 72.76165985 2.70985413 74.10472107 C2.69652559 77.66302109 2.69587908 81.22121448 2.69841743 84.77953458 C2.69949236 87.76340988 2.69458994 90.74726408 2.689812 93.73113483 C2.6787358 100.78244274 2.6782673 107.83369738 2.68432617 114.88500977 C2.69035062 122.12288478 2.67808966 129.36056464 2.6567561 136.59840637 C2.63904331 142.84080116 2.63315429 149.08313441 2.63639385 155.32555336 C2.63819316 159.04106481 2.63570855 162.75643737 2.62167931 166.47192574 C2.60657319 170.62797467 2.61615485 174.78363677 2.62768555 178.93969727 C2.62004181 180.14490021 2.61239807 181.35010315 2.60452271 182.59182739 C2.72192493 201.89661307 8.05570022 217.20699461 22 231 C22.51691406 231.55042969 23.03382812 232.10085937 23.56640625 232.66796875 C27.46299111 236.4628151 32.13296777 238.80291651 36.9375 241.25 C37.60595947 241.5917627 38.27441895 241.93352539 38.96313477 242.28564453 C39.62369873 242.60903809 40.2842627 242.93243164 40.96484375 243.265625 C41.5487085 243.55211914 42.13257324 243.83861328 42.73413086 244.13378906 C50.64068238 247.15635611 57.99916784 247.2913763 66.38574219 247.2746582 C67.72704348 247.2790124 69.06834228 247.28419789 70.40963745 247.29014587 C74.03384911 247.30347413 77.65795609 247.30412125 81.28218746 247.30158257 C84.31853731 247.30050821 87.35486638 247.30540832 90.39121175 247.310188 C97.56225612 247.32126281 104.7332481 247.32173265 111.90429688 247.31567383 C119.27515077 247.30964136 126.64581342 247.32193114 134.0166347 247.3432439 C140.36768639 247.36092535 146.71867757 247.36685081 153.06975293 247.36360615 C156.85279625 247.36180284 160.63570327 247.36433305 164.41872406 247.37832069 C167.98113433 247.39100079 171.54324934 247.38886015 175.10565567 247.37590981 C177.01650022 247.37245924 178.92735423 247.38364782 180.83816528 247.39547729 C197.67193362 247.29421794 212.70683941 242.053914 224.8984375 230.16015625 C225.59195313 229.44730469 226.28546875 228.73445312 227 228 C227.54914063 227.48308594 228.09828125 226.96617187 228.6640625 226.43359375 C232.4306425 222.57637412 234.79877278 217.93847411 237.25 213.1875 C237.5917627 212.53579834 237.93352539 211.88409668 238.28564453 211.21264648 C242.96202358 201.75387183 243.29391491 192.15033421 243.25878906 181.75439453 C243.2622937 180.46523132 243.26579834 179.17606812 243.26940918 177.84783936 C243.27845958 174.33943427 243.27501908 170.83114796 243.26865101 167.32274103 C243.26355049 163.63148865 243.26829383 159.94024574 243.27142334 156.24899292 C243.27505217 150.05057978 243.27029337 143.85221445 243.26074219 137.65380859 C243.24986934 130.51584379 243.25337907 123.37799338 243.264395 116.24003136 C243.27351037 110.08426924 243.2747322 103.92854128 243.26951766 97.77277458 C243.26641997 94.1082846 243.26592717 90.44384814 243.27259064 86.77936172 C243.2795124 82.68763865 243.26988238 78.59610845 243.25878906 74.50439453 C243.26486176 72.71317673 243.26486176 72.71317673 243.27105713 70.88577271 C243.21859009 60.37737465 242.41698549 50.27947883 237.4375 40.875 C237.08888916 40.19904785 236.74027832 39.5230957 236.38110352 38.82666016 C233.10070593 32.72606726 229.01139464 27.78193517 224 23 C223.46117187 22.44183594 222.92234375 21.88367187 222.3671875 21.30859375 C210.27697081 9.6740385 193.28062855 6.53685435 177.17602539 6.59594727 C175.83575375 6.59022843 174.49548697 6.58325839 173.15522766 6.57514954 C169.55180288 6.55737051 165.94862362 6.55835726 162.34516835 6.56409192 C159.32112969 6.56720586 156.29713672 6.56106709 153.27310461 6.55505317 C146.13165589 6.54105986 138.99032694 6.5425259 131.84887695 6.55395508 C124.51538656 6.56543324 117.18226202 6.55135401 109.84881979 6.5245586 C103.51973867 6.50231073 97.19077162 6.4957845 90.86165422 6.50163502 C87.09592852 6.50498394 83.33043724 6.50272863 79.56474495 6.48538399 C76.0210705 6.4697706 72.47793283 6.47402689 68.93427849 6.49268913 C67.0367839 6.49805512 65.13926435 6.48397149 63.24182129 6.46899414 C45.5282497 6.61894713 31.40491552 13.66095129 19 26 Z " fill="#1F2839" transform="translate(0,0)"/>
<path d="M0 0 C3.82034213 3.00565219 6.35763817 5.92825564 7.94921875 10.609375 C8.16621084 13.33163935 8.09091164 15.86997906 7.94921875 18.609375 C2.99921875 18.609375 -1.95078125 18.609375 -7.05078125 18.609375 C-7.62828125 17.495625 -8.20578125 16.381875 -8.80078125 15.234375 C-10.41296954 12.12515474 -11.73683109 10.82150452 -15.05078125 9.609375 C-19.73603291 9.02276626 -23.81253988 9.02815966 -28.11328125 11.046875 C-29.94091897 12.46400168 -29.94091897 12.46400168 -31.05078125 13.609375 C-31.4843598 17.5906283 -31.4843598 17.5906283 -30 21.15625 C-27.15556607 23.27674984 -23.98077941 24.03861624 -20.61328125 24.984375 C2.43700165 31.8550822 2.43700165 31.8550822 7.19140625 39.64453125 C10.1222333 45.53650425 11.09106956 50.49157552 9.32421875 56.86328125 C7.04981503 62.86405177 3.4527461 67.2744275 -2.05078125 70.609375 C-8.23484802 73.3102827 -13.91320299 74.08218636 -20.61328125 73.984375 C-21.41185547 73.99597656 -22.21042969 74.00757813 -23.03320312 74.01953125 C-31.09524868 73.98010804 -37.61861029 71.61217463 -44.05078125 66.609375 C-49.67567247 60.7288069 -51.05078125 56.72756162 -51.05078125 48.609375 C-45.77078125 48.609375 -40.49078125 48.609375 -35.05078125 48.609375 C-34.39078125 50.919375 -33.73078125 53.229375 -33.05078125 55.609375 C-30.63578668 57.07602148 -30.63578668 57.07602148 -28.05078125 57.609375 C-27.39078125 57.939375 -26.73078125 58.269375 -26.05078125 58.609375 C-20.06936998 59.16878756 -15.17483361 59.06811034 -10.05078125 55.609375 C-7.80451168 52.80203027 -7.80451168 52.80203027 -7.92578125 49.671875 C-9.4041844 45.64733309 -11.01734543 45.29312735 -14.74658203 43.54418945 C-18.42849354 42.05043663 -22.19786407 41.11395351 -26.05078125 40.171875 C-35.55653594 37.67341279 -42.19951234 34.76568923 -48.05078125 26.609375 C-49.98154663 20.81707885 -49.79795613 14.19958124 -48.11328125 8.359375 C-36.62512184 -6.95817087 -16.17283192 -10.96672031 0 0 Z " fill="#FCFBFE" transform="translate(183.05078125,92.390625)"/>
<path d="M0 0 C5.94 0 11.88 0 18 0 C19.92547176 5.56275998 21.84754901 11.12648465 23.76171875 16.69311523 C24.41154505 18.57982681 25.06318583 20.46591459 25.71679688 22.35131836 C36 52.02592983 36 52.02592983 36 60 C36.66 60 37.32 60 38 60 C38.07992187 58.97132813 38.15984375 57.94265625 38.2421875 56.8828125 C39.06446867 50.35326967 41.19308218 44.14386218 43.125 37.875 C43.52962925 36.54553601 43.93384075 35.21594482 44.33764648 33.88623047 C47.78791373 22.55814072 51.35734833 11.26762349 55 0 C61.27 0 67.54 0 74 0 C71.53369529 8.452412 68.75772421 16.78854291 65.9296875 25.125 C65.44301661 26.56319561 64.95645647 28.0014287 64.47000122 29.43969727 C63.45750391 32.43201562 62.4438034 35.42392273 61.42919922 38.41552734 C60.12793968 42.25261409 58.82955532 46.0906665 57.53202629 49.92901611 C56.53111974 52.8889771 55.52881317 55.84846246 54.52606583 58.80780029 C54.04640772 60.22387796 53.56716506 61.64009641 53.08834457 63.05645752 C52.42212345 65.02640117 51.75404506 66.99570502 51.08544922 68.96484375 C50.70589081 70.0849585 50.3263324 71.20507324 49.93527222 72.35913086 C49 75 49 75 48 77 C40.74 77 33.48 77 26 77 C20.32246826 61.00383137 14.65410241 45.00446551 9 29 C8.70798706 28.17397278 8.41597412 27.34794556 8.1151123 26.49688721 C6.54812645 22.06312417 4.98924749 17.62662624 3.4375 13.1875 C3.07470947 12.16027832 2.71191895 11.13305664 2.33813477 10.07470703 C2.01901123 9.1567334 1.6998877 8.23875977 1.37109375 7.29296875 C1.10224365 6.5249292 0.83339355 5.75688965 0.55639648 4.96557617 C0 3 0 3 0 0 Z " fill="#FCFCFE" transform="translate(52,88)"/>
</svg>
